<svg width="118" height="37" viewBox="0 0 118 37" fill="none" xmlns="http://www.w3.org/2000/svg">
<path d="M16.678 2.61697L22.5454 16.6855L16.1376 33.0098C15.4365 34.7959 14.0055 36.1581 12.2396 36.7205C11.6589 36.9054 11.0552 36.9994 10.4482 36.9994H3.82228C2.6782 36.9994 1.59428 36.4634 0.868266 35.5386C-0.00849731 34.4218 -0.240763 32.897 0.260767 31.5505L10.9835 2.76264C11.2301 2.10058 11.6842 1.53783 12.2644 1.16828C13.2748 0.52476 14.5605 0.539865 15.5497 1.21838C16.0478 1.55999 16.4398 2.046 16.678 2.61697Z" fill="#1B7C94"/>
<path d="M45.322 2.61697L39.4546 16.6855L45.8624 33.0098C46.5635 34.7959 47.9945 36.1581 49.7604 36.7205C50.3411 36.9054 50.9448 36.9994 51.5518 36.9994H58.1777C59.3218 36.9994 60.4057 36.4634 61.1317 35.5386C62.0085 34.4218 62.2408 32.897 61.7392 31.5505L51.0165 2.76264C50.7699 2.10058 50.3158 1.53783 49.7356 1.16828C48.7252 0.52476 47.4395 0.539865 46.4503 1.21838C45.9522 1.55999 45.5602 2.046 45.322 2.61697Z" fill="#1B7C94"/>
<path d="M23.2501 16.2145L28.6361 1.82284C29.5421 -0.597872 33.0114 -0.610745 33.9358 1.80318L39.4547 16.2145L33.9101 29.6763C32.9509 32.0049 29.6007 31.9918 28.6604 29.6557L23.2501 16.2145Z" fill="#1B7C94"/>
<path d="M111.37 33.5011H106.506C106.227 33.5011 106 33.3049 106 33.0629V22.0788C106 21.8368 106.227 21.6406 106.506 21.6406H111.185C115.204 21.6406 118 24.0768 118 27.6029C118 31.0649 115.278 33.5011 111.37 33.5011ZM110.889 24.0448H109.506C109.227 24.0448 109 24.2409 109 24.4829V30.6588C109 30.9008 109.227 31.0969 109.506 31.0969H111.074C113.444 31.0969 114.833 29.7987 114.833 27.6029C114.833 25.359 113.37 24.0448 110.889 24.0448Z" fill="#1B7C94"/>
<path d="M95.4469 33.0629C95.4469 33.3049 95.2282 33.5011 94.9584 33.5011H93.0762C92.8064 33.5011 92.5876 33.3049 92.5876 33.0629V22.0788C92.5876 21.8368 92.8064 21.6406 93.0762 21.6406H95.1845C95.3484 21.6406 95.5013 21.7143 95.5918 21.8368L100.127 27.9768C100.394 28.3388 101.022 28.169 101.022 27.7348V22.0788C101.022 21.8368 101.241 21.6406 101.511 21.6406H103.393C103.663 21.6406 103.882 21.8368 103.882 22.0788V33.0629C103.882 33.3049 103.663 33.5011 103.393 33.5011H101.285C101.121 33.5011 100.968 33.4276 100.878 33.3053L96.3425 27.178C96.0749 26.8165 95.4469 26.9864 95.4469 27.4203V33.0629Z" fill="#1B7C94"/>
<path d="M87.9952 21.6406C88.1925 21.6406 88.3525 21.8368 88.3525 22.0788V33.0629C88.3525 33.3049 88.1925 33.5011 87.9952 33.5011H86.5922C86.3949 33.5011 86.2349 33.3049 86.2349 33.0629V22.0788C86.2349 21.8368 86.3949 21.6406 86.5922 21.6406H87.9952Z" fill="#1B7C94"/>
<path d="M72.6352 33.0629C72.6352 33.3049 72.4297 33.5011 72.1763 33.5011H70.4588C70.2054 33.5011 70 33.3049 70 33.0629V22.0788C70 21.8368 70.2054 21.6406 70.4588 21.6406H72.3241C72.5119 21.6406 72.6808 21.7499 72.7503 21.9166L75.9025 29.469C76.0559 29.8366 76.6007 29.837 76.7547 29.4696L79.9217 21.9159C79.9914 21.7496 80.1601 21.6406 80.3477 21.6406H82.247C82.5005 21.6406 82.7059 21.8368 82.7059 22.0788V33.0629C82.7059 33.3049 82.5005 33.5011 82.247 33.5011H80.5296C80.2761 33.5011 80.0707 33.3049 80.0707 33.0629V31.0168C80.0707 30.9687 80.0707 30.9213 80.0707 30.8746C80.0707 30.3528 78.937 30.1333 78.7395 30.6198L77.6834 33.2213C77.6149 33.3899 77.445 33.5011 77.2556 33.5011H75.4007C75.2109 33.5011 75.0407 33.3895 74.9725 33.2204L73.6647 29.9782C73.5162 29.6101 72.6352 29.7889 72.6352 30.1834V33.0629Z" fill="#1B7C94"/>
<path d="M108.97 15.0633C108.901 15.241 108.713 15.3605 108.501 15.3605H106.496C106.153 15.3605 105.914 15.0604 106.029 14.7751L110.46 3.79093C110.53 3.61647 110.717 3.5 110.926 3.5H113.09C113.3 3.5 113.487 3.61671 113.557 3.79142L117.971 14.7756C118.085 15.0608 117.846 15.3605 117.504 15.3605H115.446C115.233 15.3605 115.044 15.2398 114.976 15.0609L114.26 13.1597C114.192 12.9808 114.003 12.8602 113.79 12.8602H110.171C109.959 12.8602 109.77 12.9797 109.702 13.1574L108.97 15.0633ZM111.628 8.14802L110.887 10.1029C110.779 10.3868 111.018 10.6804 111.356 10.6804H112.625C112.963 10.6804 113.202 10.3868 113.094 10.1029L112.353 8.14802C112.273 7.92789 111.711 7.92875 111.628 8.14802Z" fill="#1B7C94"/>
<path d="M97.2545 5.90415C97.0165 5.90415 96.8235 5.70798 96.8235 5.466V3.93815C96.8235 3.69617 97.0165 3.5 97.2545 3.5H105.569C105.807 3.5 106 3.69617 106 3.93815V5.466C106 5.70798 105.807 5.90415 105.569 5.90415H103.12C102.882 5.90415 102.689 6.10031 102.689 6.3423V14.9223C102.689 15.1643 102.496 15.3605 102.258 15.3605H100.566C100.328 15.3605 100.135 15.1643 100.135 14.9223V6.3423C100.135 6.10031 99.9416 5.90415 99.7036 5.90415H97.2545Z" fill="#1B7C94"/>
<path d="M93.9996 14.9223C93.9996 15.1643 93.7974 15.3605 93.5479 15.3605H86.6865C86.4371 15.3605 86.2349 15.1643 86.2349 14.9223V3.93815C86.2349 3.69617 86.4371 3.5 86.6865 3.5H93.5479C93.7974 3.5 93.9996 3.69617 93.9996 3.93815V5.466C93.9996 5.70798 93.7974 5.90415 93.5479 5.90415H89.3628C89.1134 5.90415 88.9112 6.10031 88.9112 6.3423V7.79001C88.9112 8.03199 89.1134 8.22816 89.3628 8.22816H92.9697C93.2191 8.22816 93.4213 8.42432 93.4213 8.66631V10.0659C93.4213 10.3079 93.2191 10.5041 92.9697 10.5041H89.3628C89.1134 10.5041 88.9112 10.7003 88.9112 10.9422V12.5182C88.9112 12.7601 89.1134 12.9563 89.3628 12.9563H93.5479C93.7974 12.9563 93.9996 13.1525 93.9996 13.3945V14.9223Z" fill="#1B7C94"/>
<path d="M72.6352 14.9223C72.6352 15.1643 72.4297 15.3605 72.1763 15.3605H70.4588C70.2054 15.3605 70 15.1643 70 14.9223V3.93815C70 3.69617 70.2054 3.5 70.4588 3.5H72.3241C72.5119 3.5 72.6808 3.60932 72.7503 3.77593L75.9025 11.3283C76.0559 11.6959 76.6007 11.6964 76.7547 11.329L79.9217 3.7753C79.9914 3.60902 80.1601 3.5 80.3477 3.5H82.247C82.5005 3.5 82.7059 3.69617 82.7059 3.93815V14.9223C82.7059 15.1643 82.5005 15.3605 82.247 15.3605H80.5296C80.2761 15.3605 80.0707 15.1643 80.0707 14.9223V12.8762C80.0707 12.8281 80.0707 12.7807 80.0707 12.734C80.0707 12.2121 78.937 11.9926 78.7395 12.4792L77.6834 15.0807C77.6149 15.2493 77.445 15.3605 77.2556 15.3605H75.4007C75.2109 15.3605 75.0407 15.2489 74.9725 15.0798L73.6647 11.8376C73.5162 11.4695 72.6352 11.6482 72.6352 12.0427V14.9223Z" fill="#1B7C94"/>
</svg>
