<svg width="256" height="106" viewBox="0 0 256 106" fill="none" xmlns="http://www.w3.org/2000/svg">
<path fill-rule="evenodd" clip-rule="evenodd" d="M108.188 42.6391C108.188 35.0786 114.447 29 122.048 29C129.7 29 136 35.1193 136 42.7298L136 52.9849C136 62.0302 128.573 69.3629 119.412 69.3629H112.637C110.18 69.3629 108.188 67.3966 108.188 64.9711C108.188 62.5455 110.18 60.5793 112.637 60.5793H119.412C122.465 60.5793 125.103 58.8231 126.345 56.2782H122.002C114.373 56.2782 108.188 50.1717 108.188 42.6391ZM127.104 47.4945V42.7298C127.104 40.0259 124.843 37.7836 122.048 37.7836C119.304 37.7836 117.085 39.9853 117.085 42.6391C117.085 45.3207 119.286 47.4945 122.002 47.4945H127.104Z" fill="#1B7C94"/>
<path fill-rule="evenodd" clip-rule="evenodd" d="M99.9276 29.627C102.384 29.627 104.376 31.5932 104.376 34.0188V64.9706C104.376 67.3962 102.384 69.3625 99.9276 69.3625C97.471 69.3625 95.4795 67.3962 95.4795 64.9706V34.0188C95.4795 31.5932 97.471 29.627 99.9276 29.627Z" fill="#1B7C94"/>
<path fill-rule="evenodd" clip-rule="evenodd" d="M12.4481 29.416C14.9048 29.416 16.8963 31.3823 16.8963 33.8078V46.1467C16.8963 50.9978 20.8793 54.9304 25.7925 54.9304H58.2003V33.8078C58.2003 31.3823 60.1918 29.416 62.6485 29.416C65.1051 29.416 67.0966 31.3823 67.0966 33.8078V54.9304H72.2976C77.2108 54.9304 81.1938 50.9978 81.1938 46.1467V33.8078C81.1938 31.3823 83.1853 29.416 85.642 29.416C88.0986 29.416 90.0901 31.3823 90.0901 33.8078V46.1467C90.0901 55.8489 82.1241 63.714 72.2976 63.714H25.7925C15.966 63.714 8 55.8489 8 46.1467V33.8078C8 31.3823 9.9915 29.416 12.4481 29.416Z" fill="#1B7C94"/>
<path d="M34.8844 75.507C32.1297 72.5176 34.3804 67.7292 38.471 67.8764L45.0696 68.1137L42.5844 74.1537C41.3041 77.2651 37.1733 77.9911 34.8844 75.507Z" fill="#1B7C94"/>
<path d="M64.1299 71.3475C64.1299 69.2107 65.8843 67.4785 68.0485 67.4785H78.4274C80.5916 67.4785 82.346 69.2107 82.346 71.3475C82.346 73.4843 80.5916 75.2165 78.4274 75.2165H68.0485C65.8843 75.2165 64.1299 73.4843 64.1299 71.3475Z" fill="#1B7C94"/>
<path d="M212.85 21.254C215.274 17.1361 219.752 14.5996 224.598 14.5996H248L219.429 63.8837L208.958 81.4728L206.608 85.1245C204.094 89.0306 199.715 91.3992 195.007 91.3992C190.225 91.3992 185.788 88.956 183.296 84.9507L177.015 74.8551L167.609 58.8334L169.357 60.1147C177.021 65.7347 187.966 63.5281 192.751 55.3983L212.85 21.254Z" fill="#1B7C94"/>
<path d="M155.932 39.5763C146.948 29.7401 154.392 14.1231 167.831 14.6108L189.464 15.3958L181.41 35.145C177.21 45.4431 163.472 47.8325 155.932 39.5763Z" fill="#1B7C94"/>
</svg>
