<svg width="128" height="53" viewBox="0 0 128 53" fill="none" xmlns="http://www.w3.org/2000/svg">
<path fill-rule="evenodd" clip-rule="evenodd" d="M54.0942 21.3195C54.0942 17.5393 57.2236 14.5 61.0241 14.5C64.85 14.5 68.0001 17.5596 68.0001 21.3649L68.0001 26.4925C68.0001 31.0151 64.2867 34.6814 59.7061 34.6814H56.3183C55.09 34.6814 54.0942 33.6983 54.0942 32.4855C54.0942 31.2728 55.09 30.2896 56.3183 30.2896H59.7061C61.2326 30.2896 62.5513 29.4116 63.1725 28.1391H61.0012C57.1866 28.1391 54.0942 25.0859 54.0942 21.3195ZM63.5519 23.7473V21.3649C63.5519 20.0129 62.4215 18.8918 61.0241 18.8918C59.652 18.8918 58.5424 19.9926 58.5424 21.3195C58.5424 22.6603 59.6432 23.7473 61.0012 23.7473H63.5519Z" fill="#1B7C94"/>
<path fill-rule="evenodd" clip-rule="evenodd" d="M49.9638 14.8135C51.1921 14.8135 52.1879 15.7966 52.1879 17.0094V32.4853C52.1879 33.6981 51.1921 34.6812 49.9638 34.6812C48.7355 34.6812 47.7397 33.6981 47.7397 32.4853V17.0094C47.7397 15.7966 48.7355 14.8135 49.9638 14.8135Z" fill="#1B7C94"/>
<path fill-rule="evenodd" clip-rule="evenodd" d="M6.22406 14.708C7.45238 14.708 8.44813 15.6911 8.44813 16.9039V23.0734C8.44813 25.4989 10.4396 27.4652 12.8963 27.4652H29.1002V16.9039C29.1002 15.6911 30.0959 14.708 31.3242 14.708C32.5526 14.708 33.5483 15.6911 33.5483 16.9039V27.4652H36.1488C38.6054 27.4652 40.5969 25.4989 40.5969 23.0734V16.9039C40.5969 15.6911 41.5927 14.708 42.821 14.708C44.0493 14.708 45.045 15.6911 45.045 16.9039V23.0734C45.045 27.9244 41.062 31.857 36.1488 31.857H12.8963C7.98299 31.857 4 27.9244 4 23.0734V16.9039C4 15.6911 4.99575 14.708 6.22406 14.708Z" fill="#1B7C94"/>
<path d="M17.4422 37.7535C16.0649 36.2588 17.1902 33.8646 19.2355 33.9382L22.5348 34.0568L21.2922 37.0769C20.6521 38.6325 18.5867 38.9955 17.4422 37.7535Z" fill="#1B7C94"/>
<path d="M32.0649 35.6737C32.0649 34.6054 32.9421 33.7393 34.0242 33.7393H39.2137C40.2958 33.7393 41.173 34.6054 41.173 35.6737C41.173 36.7421 40.2958 37.6082 39.2137 37.6082H34.0242C32.9421 37.6082 32.0649 36.7421 32.0649 35.6737Z" fill="#1B7C94"/>
<path d="M106.425 10.627C107.637 8.56807 109.876 7.2998 112.299 7.2998H124L109.714 31.9419L104.479 40.7364L103.304 42.5622C102.047 44.5153 99.8575 45.6996 97.5035 45.6996C95.1124 45.6996 92.8939 44.478 91.6479 42.4754L88.5075 37.4275L83.8047 29.4167L84.6783 30.0573C88.5103 32.8673 93.9829 31.764 96.3756 27.6991L106.425 10.627Z" fill="#1B7C94"/>
<path d="M77.9658 19.7881C73.4742 14.87 77.1959 7.06153 83.9154 7.30538L94.7319 7.69791L90.7048 17.5725C88.605 22.7215 81.736 23.9162 77.9658 19.7881Z" fill="#1B7C94"/>
</svg>
